<mxfile host="65bd71144e">
    <diagram id="b_xXBWCvNQo0MU-UjMi2" name="Page-1">
        <mxGraphModel dx="2748" dy="1333" grid="1" gridSize="10" guides="1" tooltips="1" connect="1" arrows="1" fold="1" page="1" pageScale="1" pageWidth="100" pageHeight="100" math="0" shadow="0">
            <root>
                <mxCell id="0"/>
                <mxCell id="1" parent="0"/>
                <mxCell id="57" value="" style="rounded=1;whiteSpace=wrap;html=1;fontSize=17;fontColor=#333333;fillColor=#f5f5f5;strokeColor=#666666;" vertex="1" parent="1">
                    <mxGeometry x="-440" y="510" width="1350" height="730" as="geometry"/>
                </mxCell>
                <mxCell id="56" value="" style="rounded=1;whiteSpace=wrap;html=1;fontSize=17;fontColor=#333333;fillColor=#f5f5f5;strokeColor=#666666;" vertex="1" parent="1">
                    <mxGeometry x="-120" y="30" width="720" height="460" as="geometry"/>
                </mxCell>
                <mxCell id="7" value="685" style="rounded=1;whiteSpace=wrap;html=1;fillColor=#dae8fc;strokeColor=#6c8ebf;fontSize=20;" vertex="1" parent="1">
                    <mxGeometry x="70" y="100" width="120" height="60" as="geometry"/>
                </mxCell>
                <mxCell id="8" value="9542" style="rounded=1;whiteSpace=wrap;html=1;fillColor=#dae8fc;strokeColor=#6c8ebf;fontSize=20;" vertex="1" parent="1">
                    <mxGeometry x="190" y="100" width="120" height="60" as="geometry"/>
                </mxCell>
                <mxCell id="10" value="41" style="rounded=1;whiteSpace=wrap;html=1;fillColor=#dae8fc;strokeColor=#6c8ebf;fontSize=20;" vertex="1" parent="1">
                    <mxGeometry x="430" y="100" width="120" height="60" as="geometry"/>
                </mxCell>
                <mxCell id="11" value="nums[0,9999]" style="text;html=1;align=center;verticalAlign=middle;resizable=0;points=[];autosize=1;strokeColor=none;fillColor=none;fontSize=20;" vertex="1" parent="1">
                    <mxGeometry x="-110" y="110" width="140" height="40" as="geometry"/>
                </mxCell>
                <mxCell id="12" value="..." style="text;html=1;align=center;verticalAlign=middle;resizable=0;points=[];autosize=1;strokeColor=none;fillColor=none;fontSize=20;" vertex="1" parent="1">
                    <mxGeometry x="350" y="100" width="40" height="40" as="geometry"/>
                </mxCell>
                <mxCell id="13" value="" style="labelPosition=right;align=left;strokeWidth=1;shape=mxgraph.mockup.markup.curlyBrace;html=1;shadow=0;dashed=0;strokeColor=#999999;direction=north;fontSize=20;rotation=-90;" vertex="1" parent="1">
                    <mxGeometry x="310" width="20" height="380" as="geometry"/>
                </mxCell>
                <mxCell id="14" value="nums.length == 10000" style="text;html=1;align=center;verticalAlign=middle;resizable=0;points=[];autosize=1;strokeColor=none;fillColor=none;fontSize=20;" vertex="1" parent="1">
                    <mxGeometry x="210" y="195" width="220" height="40" as="geometry"/>
                </mxCell>
                <mxCell id="15" value="41" style="rounded=1;whiteSpace=wrap;html=1;fillColor=#dae8fc;strokeColor=#6c8ebf;fontSize=20;" vertex="1" parent="1">
                    <mxGeometry x="70" y="340" width="120" height="60" as="geometry"/>
                </mxCell>
                <mxCell id="16" value="685" style="rounded=1;whiteSpace=wrap;html=1;fillColor=#dae8fc;strokeColor=#6c8ebf;fontSize=20;" vertex="1" parent="1">
                    <mxGeometry x="190" y="340" width="120" height="60" as="geometry"/>
                </mxCell>
                <mxCell id="17" value="9542" style="rounded=1;whiteSpace=wrap;html=1;fillColor=#dae8fc;strokeColor=#6c8ebf;fontSize=20;" vertex="1" parent="1">
                    <mxGeometry x="430" y="340" width="120" height="60" as="geometry"/>
                </mxCell>
                <mxCell id="18" value="nums[0,9999]" style="text;html=1;align=center;verticalAlign=middle;resizable=0;points=[];autosize=1;strokeColor=none;fillColor=none;fontSize=20;" vertex="1" parent="1">
                    <mxGeometry x="-110" y="350" width="140" height="40" as="geometry"/>
                </mxCell>
                <mxCell id="19" value="..." style="text;html=1;align=center;verticalAlign=middle;resizable=0;points=[];autosize=1;strokeColor=none;fillColor=none;fontSize=20;" vertex="1" parent="1">
                    <mxGeometry x="350" y="340" width="40" height="40" as="geometry"/>
                </mxCell>
                <mxCell id="20" value="" style="labelPosition=right;align=left;strokeWidth=1;shape=mxgraph.mockup.markup.curlyBrace;html=1;shadow=0;dashed=0;strokeColor=#999999;direction=north;fontSize=20;rotation=-90;" vertex="1" parent="1">
                    <mxGeometry x="310" y="240" width="20" height="380" as="geometry"/>
                </mxCell>
                <mxCell id="21" value="nums.length == 10000" style="text;html=1;align=center;verticalAlign=middle;resizable=0;points=[];autosize=1;strokeColor=none;fillColor=none;fontSize=20;" vertex="1" parent="1">
                    <mxGeometry x="210" y="435" width="220" height="40" as="geometry"/>
                </mxCell>
                <mxCell id="22" value="" style="shape=flexArrow;endArrow=classic;html=1;fontSize=20;fillColor=#ffe6cc;strokeColor=#d79b00;" edge="1" parent="1">
                    <mxGeometry width="50" height="50" relative="1" as="geometry">
                        <mxPoint x="-31" y="200" as="sourcePoint"/>
                        <mxPoint x="-31" y="300" as="targetPoint"/>
                    </mxGeometry>
                </mxCell>
                <mxCell id="23" value="QuickSort(nums, 0,9999)" style="text;html=1;align=center;verticalAlign=middle;resizable=0;points=[];autosize=1;strokeColor=none;fillColor=none;fontSize=20;fontColor=#d79b00;" vertex="1" parent="1">
                    <mxGeometry x="-30" y="230" width="250" height="40" as="geometry"/>
                </mxCell>
                <mxCell id="24" value="65" style="rounded=1;whiteSpace=wrap;html=1;fillColor=#dae8fc;strokeColor=#6c8ebf;fontSize=20;" vertex="1" parent="1">
                    <mxGeometry x="-280" y="600" width="120" height="60" as="geometry"/>
                </mxCell>
                <mxCell id="25" value="666" style="rounded=1;whiteSpace=wrap;html=1;fillColor=#dae8fc;strokeColor=#6c8ebf;fontSize=20;" vertex="1" parent="1">
                    <mxGeometry x="-160" y="600" width="120" height="60" as="geometry"/>
                </mxCell>
                <mxCell id="26" value="20" style="rounded=1;whiteSpace=wrap;html=1;fillColor=#dae8fc;strokeColor=#6c8ebf;fontSize=20;" vertex="1" parent="1">
                    <mxGeometry x="80" y="600" width="120" height="60" as="geometry"/>
                </mxCell>
                <mxCell id="27" value="nums1[0,5000]" style="text;html=1;align=center;verticalAlign=middle;resizable=0;points=[];autosize=1;strokeColor=none;fillColor=none;fontSize=20;" vertex="1" parent="1">
                    <mxGeometry x="-435" y="610" width="160" height="40" as="geometry"/>
                </mxCell>
                <mxCell id="28" value="..." style="text;html=1;align=center;verticalAlign=middle;resizable=0;points=[];autosize=1;strokeColor=none;fillColor=none;fontSize=20;" vertex="1" parent="1">
                    <mxGeometry y="600" width="40" height="40" as="geometry"/>
                </mxCell>
                <mxCell id="29" value="" style="labelPosition=right;align=left;strokeWidth=1;shape=mxgraph.mockup.markup.curlyBrace;html=1;shadow=0;dashed=0;strokeColor=#999999;direction=north;fontSize=20;rotation=-90;" vertex="1" parent="1">
                    <mxGeometry x="-40" y="500" width="20" height="380" as="geometry"/>
                </mxCell>
                <mxCell id="30" value="nums.length == 10000" style="text;html=1;align=center;verticalAlign=middle;resizable=0;points=[];autosize=1;strokeColor=none;fillColor=none;fontSize=20;" vertex="1" parent="1">
                    <mxGeometry x="-140" y="695" width="220" height="40" as="geometry"/>
                </mxCell>
                <mxCell id="31" value="52" style="rounded=1;whiteSpace=wrap;html=1;fillColor=#dae8fc;strokeColor=#6c8ebf;fontSize=20;" vertex="1" parent="1">
                    <mxGeometry x="420" y="600" width="120" height="60" as="geometry"/>
                </mxCell>
                <mxCell id="32" value="96" style="rounded=1;whiteSpace=wrap;html=1;fillColor=#dae8fc;strokeColor=#6c8ebf;fontSize=20;" vertex="1" parent="1">
                    <mxGeometry x="540" y="600" width="120" height="60" as="geometry"/>
                </mxCell>
                <mxCell id="33" value="3" style="rounded=1;whiteSpace=wrap;html=1;fillColor=#dae8fc;strokeColor=#6c8ebf;fontSize=20;" vertex="1" parent="1">
                    <mxGeometry x="780" y="600" width="120" height="60" as="geometry"/>
                </mxCell>
                <mxCell id="34" value="nums2[5001,9999]" style="text;html=1;align=center;verticalAlign=middle;resizable=0;points=[];autosize=1;strokeColor=none;fillColor=none;fontSize=20;" vertex="1" parent="1">
                    <mxGeometry x="235" y="610" width="190" height="40" as="geometry"/>
                </mxCell>
                <mxCell id="35" value="..." style="text;html=1;align=center;verticalAlign=middle;resizable=0;points=[];autosize=1;strokeColor=none;fillColor=none;fontSize=20;" vertex="1" parent="1">
                    <mxGeometry x="700" y="600" width="40" height="40" as="geometry"/>
                </mxCell>
                <mxCell id="36" value="" style="labelPosition=right;align=left;strokeWidth=1;shape=mxgraph.mockup.markup.curlyBrace;html=1;shadow=0;dashed=0;strokeColor=#999999;direction=north;fontSize=20;rotation=-90;" vertex="1" parent="1">
                    <mxGeometry x="660" y="500" width="20" height="380" as="geometry"/>
                </mxCell>
                <mxCell id="37" value="nums.length == 10000" style="text;html=1;align=center;verticalAlign=middle;resizable=0;points=[];autosize=1;strokeColor=none;fillColor=none;fontSize=20;" vertex="1" parent="1">
                    <mxGeometry x="560" y="695" width="220" height="40" as="geometry"/>
                </mxCell>
                <mxCell id="38" value="" style="shape=flexArrow;endArrow=classic;html=1;fontSize=20;fillColor=#ffe6cc;strokeColor=#d79b00;" edge="1" parent="1">
                    <mxGeometry width="50" height="50" relative="1" as="geometry">
                        <mxPoint x="-380" y="730" as="sourcePoint"/>
                        <mxPoint x="-380" y="830" as="targetPoint"/>
                    </mxGeometry>
                </mxCell>
                <mxCell id="39" value="QuickSort(nums, 0,5000)" style="text;html=1;align=center;verticalAlign=middle;resizable=0;points=[];autosize=1;strokeColor=none;fillColor=none;fontSize=20;fontColor=#d79b00;" vertex="1" parent="1">
                    <mxGeometry x="-375" y="760" width="250" height="40" as="geometry"/>
                </mxCell>
                <mxCell id="40" value="20" style="rounded=1;whiteSpace=wrap;html=1;fillColor=#dae8fc;strokeColor=#6c8ebf;fontSize=20;" vertex="1" parent="1">
                    <mxGeometry x="-280" y="860" width="120" height="60" as="geometry"/>
                </mxCell>
                <mxCell id="41" value="65" style="rounded=1;whiteSpace=wrap;html=1;fillColor=#dae8fc;strokeColor=#6c8ebf;fontSize=20;" vertex="1" parent="1">
                    <mxGeometry x="-160" y="860" width="120" height="60" as="geometry"/>
                </mxCell>
                <mxCell id="42" value="666" style="rounded=1;whiteSpace=wrap;html=1;fillColor=#dae8fc;strokeColor=#6c8ebf;fontSize=20;" vertex="1" parent="1">
                    <mxGeometry x="80" y="860" width="120" height="60" as="geometry"/>
                </mxCell>
                <mxCell id="43" value="nums1[0,5000]" style="text;html=1;align=center;verticalAlign=middle;resizable=0;points=[];autosize=1;strokeColor=none;fillColor=none;fontSize=20;" vertex="1" parent="1">
                    <mxGeometry x="-435" y="870" width="160" height="40" as="geometry"/>
                </mxCell>
                <mxCell id="44" value="..." style="text;html=1;align=center;verticalAlign=middle;resizable=0;points=[];autosize=1;strokeColor=none;fillColor=none;fontSize=20;" vertex="1" parent="1">
                    <mxGeometry y="860" width="40" height="40" as="geometry"/>
                </mxCell>
                <mxCell id="45" value="" style="labelPosition=right;align=left;strokeWidth=1;shape=mxgraph.mockup.markup.curlyBrace;html=1;shadow=0;dashed=0;strokeColor=#999999;direction=north;fontSize=20;rotation=-90;" vertex="1" parent="1">
                    <mxGeometry x="-40" y="760" width="20" height="380" as="geometry"/>
                </mxCell>
                <mxCell id="46" value="nums.length == 5000" style="text;html=1;align=center;verticalAlign=middle;resizable=0;points=[];autosize=1;strokeColor=none;fillColor=none;fontSize=20;" vertex="1" parent="1">
                    <mxGeometry x="-135" y="955" width="210" height="40" as="geometry"/>
                </mxCell>
                <mxCell id="47" value="" style="shape=flexArrow;endArrow=classic;html=1;fontSize=20;fillColor=#ffe6cc;strokeColor=#d79b00;" edge="1" parent="1">
                    <mxGeometry width="50" height="50" relative="1" as="geometry">
                        <mxPoint x="330" y="730" as="sourcePoint"/>
                        <mxPoint x="330" y="830" as="targetPoint"/>
                    </mxGeometry>
                </mxCell>
                <mxCell id="48" value="QuickSort(nums, 5001,9999)" style="text;html=1;align=center;verticalAlign=middle;resizable=0;points=[];autosize=1;strokeColor=none;fillColor=none;fontSize=20;fontColor=#d79b00;" vertex="1" parent="1">
                    <mxGeometry x="335" y="760" width="280" height="40" as="geometry"/>
                </mxCell>
                <mxCell id="49" value="3" style="rounded=1;whiteSpace=wrap;html=1;fillColor=#dae8fc;strokeColor=#6c8ebf;fontSize=20;" vertex="1" parent="1">
                    <mxGeometry x="420" y="860" width="120" height="60" as="geometry"/>
                </mxCell>
                <mxCell id="50" value="52" style="rounded=1;whiteSpace=wrap;html=1;fillColor=#dae8fc;strokeColor=#6c8ebf;fontSize=20;" vertex="1" parent="1">
                    <mxGeometry x="540" y="860" width="120" height="60" as="geometry"/>
                </mxCell>
                <mxCell id="51" value="96" style="rounded=1;whiteSpace=wrap;html=1;fillColor=#dae8fc;strokeColor=#6c8ebf;fontSize=20;" vertex="1" parent="1">
                    <mxGeometry x="780" y="860" width="120" height="60" as="geometry"/>
                </mxCell>
                <mxCell id="52" value="nums2[5001,9999]" style="text;html=1;align=center;verticalAlign=middle;resizable=0;points=[];autosize=1;strokeColor=none;fillColor=none;fontSize=20;" vertex="1" parent="1">
                    <mxGeometry x="235" y="870" width="190" height="40" as="geometry"/>
                </mxCell>
                <mxCell id="53" value="..." style="text;html=1;align=center;verticalAlign=middle;resizable=0;points=[];autosize=1;strokeColor=none;fillColor=none;fontSize=20;" vertex="1" parent="1">
                    <mxGeometry x="700" y="860" width="40" height="40" as="geometry"/>
                </mxCell>
                <mxCell id="54" value="" style="labelPosition=right;align=left;strokeWidth=1;shape=mxgraph.mockup.markup.curlyBrace;html=1;shadow=0;dashed=0;strokeColor=#999999;direction=north;fontSize=20;rotation=-90;" vertex="1" parent="1">
                    <mxGeometry x="660" y="760" width="20" height="380" as="geometry"/>
                </mxCell>
                <mxCell id="55" value="nums.length == 5000" style="text;html=1;align=center;verticalAlign=middle;resizable=0;points=[];autosize=1;strokeColor=none;fillColor=none;fontSize=20;" vertex="1" parent="1">
                    <mxGeometry x="565" y="955" width="210" height="40" as="geometry"/>
                </mxCell>
                <mxCell id="58" value="单线程" style="text;html=1;align=center;verticalAlign=middle;resizable=0;points=[];autosize=1;strokeColor=none;fillColor=none;fontSize=30;fontColor=#000000;fontFamily=黑体;" vertex="1" parent="1">
                    <mxGeometry x="185" y="40" width="110" height="50" as="geometry"/>
                </mxCell>
                <mxCell id="59" value="双线程" style="text;html=1;align=center;verticalAlign=middle;resizable=0;points=[];autosize=1;strokeColor=none;fillColor=none;fontSize=30;fontColor=#000000;fontFamily=黑体;" vertex="1" parent="1">
                    <mxGeometry x="195" y="525" width="110" height="50" as="geometry"/>
                </mxCell>
                <mxCell id="63" value="" style="shape=flexArrow;endArrow=classic;html=1;fontSize=20;fillColor=#ffe6cc;strokeColor=#d79b00;" edge="1" parent="1">
                    <mxGeometry width="50" height="50" relative="1" as="geometry">
                        <mxPoint x="110" y="969.9999999999998" as="sourcePoint"/>
                        <mxPoint x="200" y="1070" as="targetPoint"/>
                    </mxGeometry>
                </mxCell>
                <mxCell id="64" value="" style="shape=flexArrow;endArrow=classic;html=1;fontSize=20;fillColor=#ffe6cc;strokeColor=#d79b00;" edge="1" parent="1">
                    <mxGeometry width="50" height="50" relative="1" as="geometry">
                        <mxPoint x="435" y="959.9999999999998" as="sourcePoint"/>
                        <mxPoint x="360" y="1070" as="targetPoint"/>
                    </mxGeometry>
                </mxCell>
                <mxCell id="65" value="685" style="rounded=1;whiteSpace=wrap;html=1;fillColor=#dae8fc;strokeColor=#6c8ebf;fontSize=20;" vertex="1" parent="1">
                    <mxGeometry x="55" y="1090" width="120" height="60" as="geometry"/>
                </mxCell>
                <mxCell id="66" value="9542" style="rounded=1;whiteSpace=wrap;html=1;fillColor=#dae8fc;strokeColor=#6c8ebf;fontSize=20;" vertex="1" parent="1">
                    <mxGeometry x="175" y="1090" width="120" height="60" as="geometry"/>
                </mxCell>
                <mxCell id="67" value="41" style="rounded=1;whiteSpace=wrap;html=1;fillColor=#dae8fc;strokeColor=#6c8ebf;fontSize=20;" vertex="1" parent="1">
                    <mxGeometry x="415" y="1090" width="120" height="60" as="geometry"/>
                </mxCell>
                <mxCell id="68" value="nums[0,9999]" style="text;html=1;align=center;verticalAlign=middle;resizable=0;points=[];autosize=1;strokeColor=none;fillColor=none;fontSize=20;" vertex="1" parent="1">
                    <mxGeometry x="-125" y="1100" width="140" height="40" as="geometry"/>
                </mxCell>
                <mxCell id="69" value="..." style="text;html=1;align=center;verticalAlign=middle;resizable=0;points=[];autosize=1;strokeColor=none;fillColor=none;fontSize=20;" vertex="1" parent="1">
                    <mxGeometry x="335" y="1090" width="40" height="40" as="geometry"/>
                </mxCell>
                <mxCell id="70" value="" style="labelPosition=right;align=left;strokeWidth=1;shape=mxgraph.mockup.markup.curlyBrace;html=1;shadow=0;dashed=0;strokeColor=#999999;direction=north;fontSize=20;rotation=-90;" vertex="1" parent="1">
                    <mxGeometry x="295" y="990" width="20" height="380" as="geometry"/>
                </mxCell>
                <mxCell id="71" value="nums.length == 10000" style="text;html=1;align=center;verticalAlign=middle;resizable=0;points=[];autosize=1;strokeColor=none;fillColor=none;fontSize=20;" vertex="1" parent="1">
                    <mxGeometry x="195" y="1185" width="220" height="40" as="geometry"/>
                </mxCell>
                <mxCell id="72" value="merge(nums1, nums2)" style="text;html=1;align=center;verticalAlign=middle;resizable=0;points=[];autosize=1;strokeColor=none;fillColor=none;fontSize=20;fontColor=#d79b00;" vertex="1" parent="1">
                    <mxGeometry x="165" y="970" width="220" height="40" as="geometry"/>
                </mxCell>
            </root>
        </mxGraphModel>
    </diagram>
</mxfile>